<svg xmlns="http://www.w3.org/2000/svg" viewBox="0 0 355.99 454.82"><defs><style>.cls-1{fill:#f7b300;}</style></defs><g id="Capa_2" data-name="Capa 2"><g id="Capa_1-2" data-name="Capa 1"><path class="cls-1" d="M226.74,301.57V283.73c0-74.49-.31-149,.12-223.48.25-42.89,42.71-70.56,86.27-56.6,24.93,8,39.3,24.17,41.7,47a184.86,184.86,0,0,1-.28,43.73c-.71,5.25-9.17,9.73-14.1,14.56-4.63-4.6-12.34-8.78-13.26-13.88-2.06-11.42-.44-23.3-.86-35-.77-21.49-15.54-35.56-36-34.78-20.16.77-33.48,14.48-33.5,35.19-.1,93.48.2,187-.16,280.44-.21,57-42.74,101.5-105.86,112C75.57,465.45,2.09,414.2.27,347.89,0,338.64.73,329.36.09,320.14c-1-14,6.27-18.87,22.07-18.75,61.29.44,122.59.18,183.89.18ZM126.82,428.11c3-2.23,12-5.68,13.44-10.73,2.51-8.86-6.37-12.11-15.79-12.66-28.29-1.65-47.79-14.13-61.3-35.47-2.53-4-12.15-8-16.91-6.86-8.86,2.08-9.83,9.1-5.51,16.61C57.41,408,84.76,423.32,126.82,428.11Z"/><circle class="cls-1" cx="290.8" cy="66.12" r="18.83"/></g></g></svg>