<svg xmlns="http://www.w3.org/2000/svg" viewBox="0 0 492.59 234.06"><defs><style>.cls-1{fill:#f7b300;}.cls-2{fill:#4ea34b;}</style></defs><g id="Capa_2" data-name="Capa 2"><g id="Capa_1-2" data-name="Capa 1"><path class="cls-1" d="M57.5,161l.2-113.71q0-11.13,9.9-20.51a2.87,2.87,0,0,0,.92-2.06,4.59,4.59,0,0,0-.74-2.34,3.17,3.17,0,0,0-2.94-1.23H39.73q-5.07,0-7.83,3.16-4.61,5.28-4.61,10.79v6.68q0,9.14-8.4,12.66a13.88,13.88,0,0,1-5.36,1,15.19,15.19,0,0,1-5.3-1A14,14,0,0,1,4,51.46a13.16,13.16,0,0,1-4-9.73v-7A33.7,33.7,0,0,1,10,10.2,32.53,32.53,0,0,1,34.09,0H97.55a9.67,9.67,0,0,1,7.31,3.11,9.3,9.3,0,0,1,2.94,6.38,13.8,13.8,0,0,1-.81,5.22,10.53,10.53,0,0,1-2.19,3.34,9,9,0,0,1-6.45,3.05,13.26,13.26,0,0,0-5.76,1.11,13.48,13.48,0,0,0-4,3,13.84,13.84,0,0,0-3.68,9.73L84.8,161"/><path class="cls-1" d="M142.9,43.11q12.84,0,21.61,3.19a34.53,34.53,0,0,1,14,8.94A33.43,33.43,0,0,1,186,69.18a68.2,68.2,0,0,1,2.24,18V137a20.9,20.9,0,0,1-17.84,20.64l-.24,0a186.66,186.66,0,0,1-27.29,1.81,82.21,82.21,0,0,1-18.41-1.92,38.64,38.64,0,0,1-14.23-6.17,29.06,29.06,0,0,1-9.21-11.07q-3.31-6.8-3.31-16.81,0-9.57,3.74-16.17a30.7,30.7,0,0,1,10.17-10.75,44.17,44.17,0,0,1,14.87-5.95,84,84,0,0,1,17.66-1.81,81.35,81.35,0,0,1,9,.53,83.69,83.69,0,0,1,10.06,1.81V87a33.29,33.29,0,0,0-1.07-8.51,17,17,0,0,0-10.81-11.92,30.82,30.82,0,0,0-11-1.7,98.47,98.47,0,0,0-16.48,1.28c-5,.85-9.18,4.38-12.2,3-4.81-2.23-6-16.33-3.21-20.85,1.79-3,8.06-2.27,14.34-3.4A112.58,112.58,0,0,1,142.9,43.11Zm2.14,96q12,0,18.19-1.28V109.3A48.92,48.92,0,0,0,157,108a57.57,57.57,0,0,0-9-.64,59.4,59.4,0,0,0-8.66.64,27,27,0,0,0-7.92,2.34,14.37,14.37,0,0,0-5.68,4.79,13.37,13.37,0,0,0-2.14,7.76q0,9.17,5.78,12.67T145,139.09Z"/><path class="cls-1" d="M201.21,159.52h0V43.11h26v89.48C227.2,147.46,215.56,159.52,201.21,159.52Z"/><path class="cls-1" d="M330.55,101.5a87.67,87.67,0,0,1-3,23.52,57.37,57.37,0,0,1-8.56,18.4,38.86,38.86,0,0,1-13.93,12,41,41,0,0,1-18.94,4.28,42.12,42.12,0,0,1-13.07-1.93,45.79,45.79,0,0,1-9.8-4.27V171c0,14.29-10.42,25.87-23.26,25.87h0V49.1A169.57,169.57,0,0,1,257.5,45a119.49,119.49,0,0,1,21.91-1.93,53.36,53.36,0,0,1,21.34,4.07A44.34,44.34,0,0,1,316.8,58.83,52.72,52.72,0,0,1,327,77.22,77.5,77.5,0,0,1,330.55,101.5Zm-23.84.43q0-17.33-7-26.95t-22.58-9.62c-2.18,0-4.46.1-6.83.32a33.22,33.22,0,0,0-7,1.39V131a34.69,34.69,0,0,0,8.17,4.39,29.08,29.08,0,0,0,10.86,2q12.69,0,18.55-9.63T306.71,101.93Z"/><path class="cls-1" d="M388,43.11q12.66,0,21.33,3.19a34.07,34.07,0,0,1,13.83,8.94,33.59,33.59,0,0,1,7.39,13.94,68.64,68.64,0,0,1,2.22,18V137a20.81,20.81,0,0,1-17.61,20.64l-.24,0A181.59,181.59,0,0,1,388,159.52a80,80,0,0,1-18.16-1.92,37.9,37.9,0,0,1-14.05-6.17,29,29,0,0,1-9.08-11.07q-3.27-6.8-3.27-16.81,0-9.57,3.69-16.17a30.51,30.51,0,0,1,10-10.75,43.18,43.18,0,0,1,14.67-5.95,81.74,81.74,0,0,1,17.42-1.81,79.13,79.13,0,0,1,8.87.53,81.49,81.49,0,0,1,9.93,1.81V87A33.29,33.29,0,0,0,407,78.44a17.68,17.68,0,0,0-3.69-7.13,17.36,17.36,0,0,0-7-4.79,30.12,30.12,0,0,0-10.88-1.7,96,96,0,0,0-16.26,1.28c-4.93.85-9.05,4.38-12,3-4.74-2.23-5.87-16.33-3.17-20.85,1.77-3,7.95-2.27,14.15-3.4A109.6,109.6,0,0,1,388,43.11Zm2.11,96q11.82,0,18-1.28V109.3A47.51,47.51,0,0,0,402,108a56,56,0,0,0-8.86-.64,58.06,58.06,0,0,0-8.56.64,26.48,26.48,0,0,0-7.81,2.34,14.27,14.27,0,0,0-5.6,4.79,13.44,13.44,0,0,0-2.11,7.76q0,9.17,5.7,12.67T390.15,139.09Z"/><path class="cls-2" d="M492.11,64.37c-1-9.58-7-16.37-17.51-19.73-18.29-5.86-36.11,5.76-36.22,23.77-.18,31.27-.05,62.55-.05,93.82v7.49h-8.69c-25.73,0-51.47.11-77.2-.07-6.64-.05-9.68,2-9.27,7.87.27,3.87,0,7.77.08,11.65.76,27.84,31.61,49.36,63.19,44.1,26.5-4.42,44.35-23.1,44.45-47,.15-39.24,0-78.49.06-117.74,0-8.69,5.6-14.45,14.07-14.77s14.8,5.58,15.12,14.6c.18,4.9-.5,9.89.36,14.68.39,2.14,3.63,3.9,5.57,5.83,2.07-2,5.62-3.91,5.92-6.11A77.76,77.76,0,0,0,492.11,64.37ZM402,217.35c-.47,3.17-4.52,5.42-10.47,4.17-19-4-23-8-31.31-20.29-2-3-2.11-6,1.31-7.71,4-2,7,2,8.11,3.62,5.67,9,13.86,14.2,25.73,14.89C399.35,212.26,402.6,213.52,402,217.35Z"/><path class="cls-1" d="M492.11,64.37c-1-9.58-7-16.37-17.51-19.73-18.29-5.86-36.11,5.76-36.22,23.77-.18,31.27-.05,62.55-.05,93.82v7.49h-8.69c-25.73,0-51.47.11-77.2-.07-6.64-.05-9.68,2-9.27,7.87.27,3.87,0,7.77.08,11.65.76,27.84,31.61,49.36,63.19,44.1,26.5-4.42,44.35-23.1,44.45-47,.15-39.24,0-78.49.06-117.74,0-8.69,5.6-14.45,14.07-14.77s14.8,5.58,15.12,14.6c.18,4.9-.5,9.89.36,14.68.39,2.14,3.63,3.9,5.57,5.83,2.07-2,5.62-3.91,5.92-6.11A77.76,77.76,0,0,0,492.11,64.37ZM402,217.35c-.47,3.17-4.52,5.42-10.47,4.17-19-4-23-8-31.31-20.29-2-3-2.11-6,1.31-7.71,4-2,7,2,8.11,3.62,5.67,9,13.86,14.2,25.73,14.89C399.35,212.26,402.6,213.52,402,217.35Z"/><circle class="cls-1" cx="464.91" cy="72.57" r="7.9"/><circle class="cls-1" cx="214.14" cy="21.56" r="12.93"/></g></g></svg>